<svg width="40" height="40" viewBox="0 0 40 40" fill="none" xmlns="http://www.w3.org/2000/svg">
<path d="M18.3333 11.6667C17.4493 11.6667 16.6014 12.0179 15.9763 12.643C15.3512 13.2681 15 14.116 15 15V18.3333C15 19.2174 15.3512 20.0652 15.9763 20.6904C16.6014 21.3155 17.4493 21.6667 18.3333 21.6667H21.6667V25H15V28.3333H21.6667C22.5507 28.3333 23.3986 27.9821 24.0237 27.357C24.6488 26.7319 25 25.8841 25 25V21.6667C25 20.7826 24.6488 19.9348 24.0237 19.3096C23.3986 18.6845 22.5507 18.3333 21.6667 18.3333H18.3333V15H25V11.6667H18.3333Z" fill="blue"/>
</svg>
