<svg width="25" height="26" viewBox="0 0 25 26" fill="none" xmlns="http://www.w3.org/2000/svg">
<g clip-path="url(#clip0_83_986)">
<path d="M17.1875 6.75H13.6093L17.1875 3.17188C17.4906 2.86875 17.4906 2.37031 17.1875 2.06719C16.8843 1.76406 16.3859 1.76406 16.0828 2.06719L11.1609 6.98906C11.0884 7.06175 11.0309 7.14801 10.9918 7.24292C10.9526 7.33783 10.9326 7.43952 10.9328 7.54219C10.9328 7.74219 11.0062 7.94375 11.1593 8.09531L11.1656 8.09844L16.0718 13.0047C16.375 13.3078 16.8734 13.3078 17.1765 13.0047C17.4796 12.7016 17.4796 12.2031 17.1765 11.9L13.5984 8.32187H17.1765C20.6296 8.32187 23.4265 11.1187 23.4265 14.5719C23.4265 18.025 20.6296 20.8219 17.1765 20.8219H7.80151C4.34839 20.8219 1.55151 18.025 1.55151 14.5719C1.55151 11.3844 3.94214 8.75937 7.02026 8.36875C7.44839 8.31562 7.80151 7.97031 7.80151 7.53906C7.80151 7.10781 7.44839 6.75313 7.02026 6.79688C5.09375 6.99541 3.30905 7.90049 2.01059 9.33746C0.712131 10.7744 -0.00805646 12.6414 -0.0109863 14.5781C-0.0109863 18.875 3.50464 22.3906 7.80151 22.3906H17.1765C21.4734 22.3906 24.989 18.875 24.989 14.5781C24.989 10.2813 21.4734 6.76563 17.1765 6.76563L17.1875 6.75Z" fill="black"/>
</g>
<defs>
<clipPath id="clip0_83_986">
<rect width="25" height="25" fill="white" transform="translate(0 0.5)"/>
</clipPath>
</defs>
</svg>
